<?xml version="1.0" encoding="utf-8"?>
<!-- Generator: Adobe Illustrator 23.0.1, SVG Export Plug-In . SVG Version: 6.00 Build 0)  -->
<svg version="1.1" id="Layer_1" xmlns="http://www.w3.org/2000/svg" xmlns:xlink="http://www.w3.org/1999/xlink" x="0px" y="0px"
	 viewBox="0 0 88.45 47.62" style="enable-background:new 0 0 88.45 47.62;" xml:space="preserve">
<style type="text/css">
	.st0{fill:#FFFFFF;}
	.st1{fill:#FFF200;}
</style>
<g>
	<path class="st0" d="M85.37,11.53L74.86,39.71c-0.56,1.51-2,2.51-3.6,2.51h-7.4c-1.62,0-3.07-1.01-3.62-2.53l-2.31-6.37
		c-3.06,5.69-8.98,9.26-15.56,9.26c-7.65,0-14.18-4.86-16.66-11.65h-7.91v7.44c0,2.12-1.73,3.85-3.85,3.85H7.83
		c-2.12,0-3.85-1.73-3.85-3.85V10.18c0-2.12,1.73-3.85,3.85-3.85h20.25c2.12,0,3.85,1.73,3.85,3.85v0.34
		c2.93-2.15,6.55-3.42,10.45-3.42c2.69,0,5.3,0.62,7.65,1.75c0.11-0.31,0.26-0.6,0.45-0.87c0.73-1.03,1.9-1.65,3.15-1.65h6.74
		c1.66,0,3.13,1.07,3.65,2.64l3.77,11.39l3.95-11.43c0.54-1.55,2-2.59,3.64-2.59h6.4c1.26,0,2.44,0.63,3.16,1.66
		C85.65,9.02,85.81,10.34,85.37,11.53z"/>
	<path d="M42.38,43.32c-7.55,0-14.39-4.66-17.18-11.65h-6.65v6.69c0,2.53-2.06,4.6-4.6,4.6H7.83c-2.53,0-4.6-2.06-4.6-4.6V10.18
		c0-2.53,2.06-4.6,4.6-4.6h20.25c2.19,0,4.03,1.54,4.49,3.59c2.93-1.85,6.3-2.82,9.81-2.82c2.53,0,4.98,0.51,7.29,1.51
		c0.06-0.11,0.13-0.21,0.2-0.31c0.86-1.23,2.27-1.96,3.77-1.96h6.74c1.99,0,3.74,1.27,4.36,3.15l3.07,9.28l3.22-9.33
		c0.64-1.85,2.39-3.1,4.35-3.1h6.4c1.5,0,2.91,0.74,3.78,1.98c0.86,1.24,1.05,2.82,0.53,4.23v0L75.57,39.97
		c-0.67,1.79-2.4,2.99-4.31,2.99h-7.4c-1.93,0-3.67-1.21-4.32-3.02l-1.77-4.88C54.4,40.19,48.64,43.32,42.38,43.32z M17.06,30.18
		h9.19l0.18,0.49c2.44,6.67,8.85,11.16,15.96,11.16c6.25,0,11.96-3.4,14.9-8.87l0.79-1.48l2.88,7.95c0.44,1.22,1.61,2.03,2.91,2.03
		h7.4c1.29,0,2.45-0.81,2.9-2.02l10.51-28.18c0.35-0.96,0.22-2.02-0.35-2.85c-0.59-0.84-1.54-1.34-2.55-1.34h-6.4
		c-1.32,0-2.49,0.84-2.93,2.09L67.77,22.7L63.31,9.2c-0.42-1.27-1.6-2.12-2.94-2.12h-6.74c-1.01,0-1.96,0.5-2.54,1.33
		c-0.15,0.21-0.27,0.45-0.36,0.69l-0.28,0.78L49.7,9.52c-2.31-1.11-4.77-1.67-7.32-1.67c-3.63,0-7.09,1.13-10.01,3.27L31.18,12
		v-1.82c0-1.71-1.39-3.1-3.1-3.1H7.83c-1.71,0-3.1,1.39-3.1,3.1v28.19c0,1.71,1.39,3.1,3.1,3.1h6.13c1.71,0,3.1-1.39,3.1-3.1V30.18z
		"/>
</g>
<path class="st1" d="M56.5,23.06l1.1,3.58h-8.65c-0.79,2.79-3.35,4.84-6.38,4.84c-3.67,0-6.65-2.98-6.65-6.65
	c0-3.66,2.98-6.64,6.65-6.64c3.03,0,5.6,2.04,6.38,4.84L56.5,23.06z"/>
<path d="M7.83,10.18h20.25v5H13.96v6.91h13.23v5H13.96v11.29H7.83V10.18z"/>
<path d="M63.87,38.37L53.63,10.18h6.74l4.31,13.02c1.31,3.94,2.31,7.28,2.98,10.16h0.08c0.59-2.63,1.72-6.07,3.11-10.07l4.52-13.11
	h6.4L71.26,38.37H63.87z"/>
<path d="M55.24,30.07c-2.06,5.08-7.03,8.66-12.86,8.66c-7.67,0-13.89-6.22-13.89-13.89s6.22-13.89,13.89-13.89
	c5.49,0,10.25,3.2,12.5,7.84h-6.81c-1.47-1.41-3.48-2.25-5.68-2.25c-4.59,0-8.31,3.71-8.31,8.31c0,4.58,3.71,8.31,8.31,8.31
	c2.6,0,4.92-1.2,6.45-3.08H55.24z"/>
</svg>
