<?xml version="1.0" encoding="utf-8"?>
<!-- Generator: Adobe Illustrator 23.0.1, SVG Export Plug-In . SVG Version: 6.00 Build 0)  -->
<svg version="1.1" id="Layer_1" xmlns="http://www.w3.org/2000/svg" xmlns:xlink="http://www.w3.org/1999/xlink" x="0px" y="0px"
	 viewBox="0 0 450 450" style="enable-background:new 0 0 450 450;" xml:space="preserve">
<style type="text/css">
	.st0{fill:#0E0E0E;}
	.st1{fill:#FAF9F9;}
	.st2{fill:#FDEE1D;}
</style>
<g>
	<path class="st0" d="M98.84,284.57c-2.2-3.64-4.26-6.9-6.18-10.24c-5.47-9.5-9.73-19.52-12.31-30.19c-0.53-2.2-1.52-2.68-3.61-2.33
		c-22.58,3.82-44.38-13.25-46.32-36.09c-0.85-10.03,1.84-18.8,8.74-26.15c1.81-1.93,2.34-3.79,1.68-6.39
		c-1.57-6.16-2.78-12.41-4.28-18.58c-0.41-1.67-0.05-2.88,0.94-4.2c9.96-13.33,19.89-26.7,29.8-40.08c1.07-1.44,2.34-2.4,4.05-2.94
		c6.96-2.21,13.88-4.54,20.85-6.71c1.8-0.56,3.24-1.46,4.54-2.77c6.31-6.36,12.84-12.5,18.93-19.06c5.41-5.83,11.84-7.62,19.36-6.15
		c1.69,0.33,2.91,0.06,4.21-0.9c14.88-10.9,31.63-17.23,49.8-19.7c18.33-2.49,36.45-0.92,54.25,4.13c6.3,1.79,12.49,3.91,18.49,6.56
		c3.12,1.38,6.38,0.54,9.58,0.6c1.07,0.02,1.5-1.05,2.04-1.82c8.34-12.09,20.24-17.55,34.51-16.82c8.46,0.43,15.59,5.27,21.53,11.3
		c10.29,10.45,13.86,23.1,11.44,37.43c-0.39,2.31,0.39,3.21,2.16,4.2c16.5,9.24,31.26,20.67,43.56,35.09
		c16.88,19.78,27.64,42.33,30.52,68.39c3.09,28.06-3.28,53.92-17.92,77.89c-0.54,0.89-1.14,1.76-1.75,2.6
		c-2.7,3.73-2.7,3.73,1.33,6.21c1.29,0.8,2.59,1.6,3.88,2.41c4.64,2.9,5.38,4.33,4,9.55c-0.62,2.33-1.07,4.41-0.43,6.86
		c0.66,2.53-0.46,5.07-1.34,7.47c-0.47,1.29-0.89,2.46-0.43,3.84c0.17,0.51,0.22,1.22,0.01,1.69c-2.29,5.05-3.29,10.73-6.77,15.18
		c-3.63,4.63-11.99,6.33-17.79,3.72c-2.09-0.94-3.25-0.81-4.83,0.94c-9.48,10.54-21.66,14.66-35.53,14.42
		c-4.18-0.07-8.4-0.2-12.46-1.3c-2.14-0.58-3.05-0.02-3.8,2.1c-4.65,13.22-9.57,26.35-14.15,39.59
		c-2.34,6.75-6.76,10.85-13.79,11.35c-7.28,0.51-14.63,1.01-21.9-0.54c-5.1-1.09-8.29-4.37-10.14-9.06
		c-1.21-3.08-2.34-6.19-3.36-9.34c-0.43-1.33-1.11-1.89-2.46-1.72c-0.28,0.04-0.58,0.05-0.86,0.01c-5.44-0.91-9.46,1.04-13.47,4.94
		c-14.5,14.11-32.35,19.56-52.23,17.98c-25.93-2.06-45.97-17.13-54.21-41.29c-0.47-1.37-1.07-1.75-2.4-1.71
		c-2.47,0.08-4.96,0.14-7.43-0.02c-1.8-0.11-2.23,0.5-2.21,2.24c0.1,7.14,0.13,14.29,0.01,21.43c-0.06,3.51-0.68,6.99-2.44,10.12
		c-2.56,4.57-6.83,6.72-11.74,6.96c-7.66,0.38-15.39,1.14-23-0.81c-4.22-1.08-7.07-3.91-8.64-7.63c-1.19-2.81-1.81-5.97-1.81-9.17
		c0.04-28.58-0.06-57.16,0.08-85.74c0.03-6.12,1.48-11.91,7.35-15.44c2.69-1.62,5.7-2,8.71-2.28
		C94.93,284.44,96.71,284.57,98.84,284.57z M151.76,294.65c-0.03,1.52,0.41,2.93,0.88,4.45c3.6-2.04,5.82-4.24,5.65-9.04
		c-0.43-12.65-0.08-25.33-0.04-37.99c0.01-1.53-0.16-3.01-0.5-4.52c-4.39-19.29-7.16-38.73-4.24-58.51
		c2.5-16.92,9.55-31.37,24-41.41c10.05-6.98,21.44-10.43,33.4-12.19c9.92-1.46,19.9-1.74,29.91-1.16c1.92,0.11,3.49-0.35,4.93-1.67
		c2.05-1.88,4.51-2.75,7.35-2.4c0.82,0.1,1.92,0.45,2.37-0.46c1.63-3.29,4.55-6.06,3.5-10.4c-1.42-5.91-0.87-11.81,2.03-17.18
		c2.12-3.93,2.57-8.08,2.98-12.33c0.11-1.14-0.23-2.01-1.21-2.29c-4.7-1.36-9.03-3.79-14.2-3.76c-10.97,0.07-21.86,0.75-32.68,2.49
		c-19.93,3.22-38.85,9.49-56.69,18.95c-1.41,0.75-2.36,1.8-2.85,3.37c-1.85,5.88-3.68,11.76-5.7,17.58
		c-1.01,2.89-1.12,5.56-0.16,8.53c1.54,4.78,2.52,9.73,3.92,14.55c0.72,2.47,0.62,4.71-0.14,7.19
		c-5.28,17.22-10.45,34.47-15.56,51.74c-0.59,1.98-1.56,3.29-3.38,4.25c-8.23,4.33-16.46,8.66-24.58,13.2
		c-2.99,1.67-5.64,2.41-8.58,0.12c-1.78-1.39-3.03-0.64-4.09,1.17c-1.88,3.22-4.23,6.1-7.18,8.42c-1.3,1.02-1.47,2.12-1.08,3.73
		c3.45,14.27,9.61,27.25,17.59,39.56c3.21,4.94,6.76,6.92,12.3,5.8c5.59,0.03,11.19-0.07,16.77,0.14
		C143.51,284.86,148.98,287.77,151.76,294.65z M147.41,313.42c0-4.53,0.08-8.42-0.02-12.3c-0.1-3.84-1.01-7.38-4.57-9.57
		c-2.25-1.38-4.78-1.76-7.37-1.76c-13.53-0.01-27.05,0-40.58,0c-8.56,0-12.34,3.77-12.34,12.35c0,18.19,0,36.39,0,54.58
		c0,10.76-0.02,21.53,0.01,32.29c0.02,7.72,3.92,11.62,11.57,11.65c4.38,0.02,8.76,0.01,13.14,0c8.31-0.01,11.98-3.68,11.98-12.02
		c0-7.43,0-14.86,0-22.29c0-6.83,0-6.83,6.69-6.83c3.81,0,7.67,0.38,11.41-0.14c2.62-0.37,3.02,0.59,3.57,2.64
		c4.19,15.79,13.8,27.4,28.28,34.63c13.87,6.92,28.6,7.87,43.62,4.28c13.36-3.19,24.01-10.59,32.53-21.23
		c0.31-0.39,0.46-0.75,1.05-0.62c4.71,1.02,9.47,0.36,14.21,0.42c1.83,0.02,2.67,0.51,3.23,2.26c1.38,4.24,2.95,8.41,4.51,12.59
		c1.14,3.05,3.23,5.12,6.52,5.71c6.71,1.21,13.48,0.71,20.2,0.36c4.44-0.23,7.27-3,8.81-7.32c7.36-20.61,14.89-41.16,22.29-61.76
		c3.54-9.87,7.76-19.54,10.25-29.75c1.46-6-2.71-10.54-6.92-11.23c-6.91-1.14-13.86-0.66-20.78-0.39c-4.66,0.18-7.65,2.97-9.22,7.6
		c-3.51,10.31-7.32,20.52-11.06,30.74c-0.73,1.99-1.17,4.13-2.51,6.17c-0.39-1.06-0.69-1.84-0.97-2.62
		c-4.17-11.68-8.34-23.36-12.52-35.04c-1.28-3.58-3.65-5.86-7.53-6.56c-5.59-1-11.2-0.32-16.8-0.45
		c-7.53-0.18-11.89,2.17-12.91,10.05c-0.01,0.11-0.23,0.2-0.35,0.29C208.87,280.48,168.04,283.69,147.41,313.42z M265.43,179.86
		c-0.32,0.29-0.64,0.58-0.96,0.87c-0.67-0.9-1.24-1.89-2.01-2.68c-4.6-4.65-6-4.88-12.21-2.33c-4.98,2.04-9.34,5.07-13.55,8.34
		c-1.55,1.2-2.31,1.43-2.7-0.93c-2.2-13.28-0.77-26.14,4.34-38.58c1.17-2.84,0.96-3.29-2.02-3.36c-8.18-0.18-16.36-0.39-24.53,0.51
		c-9.12,1-18.04,2.72-26.31,6.85c-10.76,5.38-18.45,13.52-20.96,25.5c-2.13,10.14-3.27,20.46-3.88,30.82
		c-0.83,14.15-0.08,28.15,4.13,41.8c0.27,0.88,0.19,2.24,1.18,2.4c1.39,0.22,1.35-1.38,1.74-2.22c5.43-11.85,14.35-19.7,26.85-23.36
		c9.83-2.88,19.85-3.25,29.98-1.94c4.72,0.61,4.92,0.39,4.32-4.34c-1.26-10.02-4.8-19.29-9.31-28.24
		c-1.75-3.47-3.53-6.93-5.43-10.66c1.41,0.13,1.71,0.91,2.19,1.45c4.25,4.78,7.79,10.08,11.07,15.54
		c4.83,8.05,8.33,16.62,9.59,25.99c0.22,1.63,1.02,2.56,2.36,3.27c4.12,2.21,6.81,5.65,8.63,9.9c2.05,4.77,3.07,9.75,3.46,14.9
		c0.26,3.44,0.6,3.61,3.78,2.43c18.04-6.71,36.07-13.47,54.14-20.11c2.22-0.82,3.7-2.09,4.81-4.11c3.59-6.48,7.22-12.94,10.94-19.34
		c0.91-1.56,1.31-3.11,1.21-4.86c-0.38-6.99-4.05-12.43-8.64-17.2c-2.61-2.72-3.79-5.6-4.21-9.25c-0.72-6.32-1.83-12.61-4.86-18.34
		c-1.19-2.25-2.02-2.27-3.28-0.07c-3.82,6.67-8.77,12.41-14.25,17.74c-0.89,0.87-1.82,1.7-2.31,2.87
		c-2.87,6.92-6.88,13.29-9.61,20.28c-0.68,1.76-1.69,3.39-2.81,5.58c-0.3-0.99-0.42-1.32-0.5-1.67c-1.86-8.92-4.03-17.76-6.87-26.41
		c-0.94-2.85-1.66-5.83-3.95-8.09c-4.62-4.56-7.77-10.06-9.7-16.23c-1.44-4.61-2.65-9.29-3.9-13.96c-0.4-1.51-0.91-2.92-2.81-2.28
		c-2.75,0.93-5.53,2.34-6.43,5.2c-3.07,9.79-4.71,19.77-3.06,30.08c0.33,2.07,1,2.38,2.75,1.24c3.35-2.19,6.91-3.98,10.94-4.62
		c4.66-0.74,8.26,1.1,10.2,5.35C263.89,175.62,264.61,177.76,265.43,179.86z M221.27,271.5c1.78-2.3,3.75-3.9,5.78-5.43
		c4.51-3.4,9.52-5.87,14.81-7.79c1.7-0.61,2.1-1.18,1.09-3.07c-2.39-4.41-5.41-5.61-10.43-4.42c-10.03,2.37-19.91,4.93-28.54,10.86
		c-7.54,5.18-12.8,12-15.12,21.04c0.43,0.06,0.71,0.16,0.97,0.13c14.55-1.65,28.11,1.59,40.88,8.45c1.26,0.68,1.71,0.39,2.43-0.62
		c1.94-2.71,4.49-4.46,7.85-5.21c7.55-1.68,15.19-1.02,22.74-0.66c7.22,0.35,11.99,4.6,14.21,11.62c1.33,4.2,2.91,8.33,4.39,12.52
		c1.1-0.43,1.48-1.37,2.07-2.08c5.79-6.93,11-14.32,17.12-20.99c7.62-8.31,15.82-15.94,24.75-22.82c1.92-1.48,3.98-2.46,6.33-3.08
		c5.51-1.46,10.89-3.36,15.91-6.09c5.88-3.2,11.84-6.56,14.74-12.95c3.1-6.84,8.02-10.91,15.29-12.55c2-0.45,3.72-1.53,4.26,2.05
		c2.04-2.98,3.63-5.58,4.63-8.41c1.28-3.63-1.58-6.7-5.38-6.16c-3.3,0.47-6.6,0.85-9.91,1.23c-1.38,0.16-2.68-0.29-2.81-1.74
		c-0.12-1.27,1.18-1.43,2.24-1.61c3.18-0.55,6.35-1.16,9.52-1.76c3.14-0.59,4.08-3.24,1.93-5.65c-1.57-1.77-3.4-2.89-6-2.49
		c-3.66,0.56-7.36,0.86-11.05,1.26c-1.34,0.14-2.74-0.13-2.84-1.62c-0.08-1.21,1.32-1.05,2.22-1.14c3.32-0.32,6.64-0.58,9.95-0.94
		c2.83-0.31,3.99-2.31,2.6-4.75c-1.28-2.25-3.01-3.7-6.04-3.17c-4.02,0.7-8.11,0.98-12.18,1.41c-1.05,0.11-2.05-0.24-2.2-1.34
		c-0.17-1.29,1.12-1.09,1.85-1.2c3.57-0.57,7.15-1.02,10.72-1.56c2.68-0.41,3.38-1.95,1.96-4.23c-1.86-3-4.54-4.12-7.98-3.46
		c-2.89,0.56-5.78,1.19-8.71,1.47c-5.45,0.53-9.62,2.59-12.99,7.32c-7.96,11.17-13.94,23.25-18.49,36.11
		c-0.82,2.31-2.03,3.75-4.41,4.71c-31.69,12.69-63.34,25.5-95.01,38.27C223.58,271.31,222.75,271.83,221.27,271.5z M304.72,130.71
		c-2.46,3.28-5.66,4.89-9.47,5.32c-5.16,0.58-10-0.69-14.7-2.61c-4.38-1.8-8.68-3.8-13.06-5.6c-1.78-0.73-3.87-1.3-5.04,0.88
		c-3.68,6.84-6.88,13.61-2.86,21.72c3.08,6.22,5.65,12.67,10.86,17.52c5.86,5.46,10.54,5.57,16.55,0.39
		c3.35-2.89,5.79-6.55,7.98-10.34c5.26-9.12,10.4-18.3,15.64-27.43c1.23-2.15,2.75-4.15,1.29-6.81c-0.24-0.43-0.31-1.16,0.33-1.5
		c0.49-0.27,0.91,0.07,1.29,0.36c2.42,1.85,4.88,1.39,7.14-0.15c4.84-3.31,7.78-7.99,9.07-13.66c0.59-2.62-1.23-4.24-3.84-3.54
		c-1.84,0.49-3.54,1.39-5.08,2.51c-1.26,0.92-2.32,0.9-3.62,0.04c-1.33-0.89-1.71-1.94-1.25-3.39c0.59-1.87,0.59-3.76,0.06-5.63
		c-0.52-1.82,0.03-2.99,1.6-4.08c2.18-1.51,1.97-3.16-0.61-3.99c-3.57-1.15-7.31-0.41-10.97-0.87c-0.1,0.25-0.19,0.5-0.29,0.75
		c1.29,1.08,2.59,2.15,3.94,3.27c-4.25,2.61-9.45,2.22-12.69-0.89c-1.64-1.57-3.15-3.18-5.75-1.63c0.5-3.58-1.14-5.8-4.16-4.91
		c-2.74,0.81-5.26,0.1-7.87,0.34c-3.09,0.28-5.56-2.32-5.53-5.52c0.01-1.3-1.12-1.35-1.81-1.82c-0.62-0.42-1.62-0.09-1.59,0.6
		c0.15,3.71-2.78,6.14-3.73,9.4c-1.38,4.7-1.1,9.79-3.54,14.25c-1.27,2.32-1.88,4.95-2.4,7.56c-1.12,5.7,0.79,8.22,6.59,8.76
		c2.83,0.26,5.69,0.43,8.49,0.88c5.38,0.86,9.36,4.42,13.65,7.36c3.26,2.23,6.62,4.23,10.79,3.65
		C301.68,131.67,303.19,131.11,304.72,130.71z M407.43,214.64c0.04-15.9-3.2-30.89-9.75-45.18c-12.51-27.28-32.93-47.09-58.52-62.05
		c-1.57-0.92-2.33-0.51-3.06,1.02c-1.06,2.22-2.18,4.44-3.55,6.47c-1.17,1.74-0.87,2.94,0.28,4.56c2.46,3.47,5.31,6.62,7.64,10.23
		c9.59,14.88,18,30.35,24.6,46.79c0.44,1.1,1,1.97,2.39,2.1c5.31,0.49,9.12,3.9,10.08,9.08c0.32,1.75,0.77,3.14,2.42,4.23
		c1.8,1.19,2.57,3.25,2.75,5.4c0.1,1.2,0.29,2.27,1.48,2.85c3.71,1.82,4.66,5.02,4.38,8.81c-0.08,1.01,0.06,1.8,0.8,2.58
		c4.21,4.41,4.62,7.28,1.86,12.71c-2.32,4.56-4.66,9.12-7.04,13.65c-0.69,1.31-0.88,2.54-0.6,4.07c1.81,10.11,3.19,20.28,4.24,30.49
		c0.09,0.86-0.45,2.2,0.79,2.45c1.13,0.22,1.37-1.15,1.83-1.9C401.48,255.05,407.51,235.64,407.43,214.64z M180.81,284.39
		c2.6,0.24,2.93-1.54,3.49-3.16c4.75-13.85,13.5-24.02,27.21-29.68c9.66-3.99,19.78-5.23,30.13-5.26c0.87,0,2.15,0.57,2.51-0.61
		c0.26-0.87-0.87-1.36-1.52-1.88c-5.19-4.18-11.01-7.04-17.57-8.37c-1.03-0.21-2.14-0.29-3.4-1.39c2.38-0.44,4.22-0.3,6.08-0.04
		c5.18,0.74,9.84,2.74,14.16,5.63c0.51,0.34,0.97,1.05,1.73,0.58c0.45-0.27,0.48-0.75,0.47-1.25c-0.02-3.89-4.96-10.32-8.6-10.82
		c-10.2-1.4-20.41-2.49-30.7-0.68c-10.35,1.82-19.47,5.9-26.02,14.45c-7.46,9.74-9.07,21.08-8.58,32.93
		c0.01,0.22,0.3,0.43,0.81,1.14c2.43-7.1,4.2-14.19,9.73-19.37c-3.14,7.29-4.61,14.8-3.9,22.7c0.88-2.05,1.35-4.21,1.99-6.32
		c0.69-2.27,1.45-4.53,2.73-6.55c1.16-1.84,2.15-3.9,4.61-4.61C181.96,268.76,180.79,276.33,180.81,284.39z M322.12,284.67
		c3.62-0.33,6.66,0.13,9.67,0.99c4.79,1.37,7.62,4.51,9.24,9.14c1.48,4.22,0.75,8.21-0.6,12.19c-0.57,1.67-0.51,2.53,1.5,2.76
		c6.45,0.75,12,3.24,16.03,8.58c0.57,0.75,1.34,1.35,2.07,1.96c2.7,2.25,5.27,4.68,8.49,6.21c0.87,0.41,2,1.05,2.06-0.61
		c0.14-4.25,1.07-8.37,1.81-12.52c0.3-1.71,0.14-3.07-2.62-2.48c1.82-2.62,3.64-4.55,4.68-7.01c1.52-3.58,2.15-3.62,4.8-0.75
		c2.84,3.06,5.4,6.41,8.87,8.84c2.47,1.73,4.33-0.07,6.18-1.23c1.88-1.18,0.73-2.62,0.02-3.95c-1.12-2.09-2.5-4.08-3.3-6.29
		c-2.34-6.4-6.8-10.2-13.09-12.75c-3.69-1.5-6.76-2.34-10.4-0.44c-2,1.04-4.29,1.51-6.38,2.39c-2.15,0.91-4.11,0.81-6.29-0.07
		c-8.69-3.52-17.45-6.88-26.17-10.35c-1.3-0.52-2.53-1.11-3.52,0.38C324.19,281.14,323.32,282.69,322.12,284.67z M122.05,165.83
		c1.12-0.16,1.25-1.25,1.61-2.07c5.12-11.72,10.15-23.49,15.36-35.17c1-2.25,0.35-3.16-1.55-4.23c-7.04-3.95-14.03-7.98-20.95-12.13
		c-1.81-1.09-2.74-0.92-3.87,0.87c-5.7,9.09-11.48,18.13-17.31,27.14c-1.04,1.61-0.84,2.63,0.6,3.84
		c8.15,6.87,16.24,13.81,24.36,20.72C120.79,165.22,121.21,165.8,122.05,165.83z M99.37,218.61c5.34-4.4,8.63-9.57,10.07-15.83
		c5.44-23.54-15.36-47.3-39.42-44.98c-10.84,1.05-18.77,6.67-23.82,16.3c-0.4,0.76-1.37,1.75-0.52,2.58
		c0.75,0.74,1.51-0.35,2.22-0.67c3.56-1.59,7.18-3.03,11.1-3.4c22.84-2.19,42.65,17.5,40.69,40.39
		C99.55,214.66,98.74,216.28,99.37,218.61z M338.13,84.52c0.34-5.17-0.75-10.05-3.01-14.63c-5.52-11.18-15.04-17.77-26.67-20.47
		c-10.22-2.37-20.02,1.13-26.36,10.54c-1.71,2.54-1.56,2.85,1.36,3.4c3.63,0.68,7.29,1.22,10.88,2.09
		c17.49,4.22,31.54,13.21,40.29,29.43c0.35,0.64,0.56,1.64,1.49,1.43c0.63-0.14,0.71-1,0.87-1.67
		C337.77,91.3,338.37,87.95,338.13,84.52z M51.71,145.7c0.19-0.02,0.38-0.04,0.57-0.07c10.24-1.55,20.47-3.11,30.71-4.62
		c1.86-0.27,3.01-1.16,3.86-2.88c4.95-10.03,10.02-20.01,14.99-30.03c0.34-0.68,1.28-1.47,0.48-2.29c-0.69-0.7-1.64-0.13-2.43,0.09
		c-6.59,1.78-13.13,3.78-19.77,5.34c-4.35,1.02-7.59,2.93-10.24,6.75c-5.96,8.59-12.43,16.83-18.67,25.22
		c-0.43,0.58-1.19,1.1-0.96,1.95C50.44,145.87,51.15,145.7,51.71,145.7z M318.47,127.4c-1.54,0.35-2.44,1.46-3.19,2.68
		c-3.13,5.05-5.04,10.56-6.44,16.31c-0.37,1.52,0.26,2.55,0.95,3.68c5.24,8.61,8.1,17.93,8.23,28.04c0.02,1.34,0.4,2.37,1.32,3.31
		c4.51,4.57,8.25,9.68,10.76,15.62c0.72,1.71,1.5,1.78,2.52,0.22c1.67-2.54,3.64-4.92,5.02-7.6c2.89-5.59,7.1-8.94,13.56-9.15
		c1.6-0.05,2.2-0.85,1.35-2.48c-1.44-2.77-2.71-5.63-4.15-8.41c-7.45-14.4-16.42-27.78-27.1-39.98
		C320.51,128.72,319.83,127.61,318.47,127.4z M57.24,231.83c5-0.22,9.3-2.99,11.92-7.7c5.74-10.36,11.1-20.93,16.6-31.42
		c0.64-1.21,0.77-2.66-0.53-3.26c-1.32-0.61-1.59,1.02-2.06,1.81c-4.62,7.74-9.16,15.53-13.78,23.27c-0.46,0.76-0.79,2.35-2.21,1.38
		c-1.04-0.71-1.64-1.89-1.01-3.25c0.28-0.6,0.7-1.13,1.05-1.69c4.82-7.62,9.63-15.25,14.47-22.85c0.84-1.32,1.39-2.45-0.16-3.68
		c-3.03-2.4-6.38-4.08-10.15-4.91c-1.17-0.26-2.04,0.14-2.7,1.1c-7.61,11.12-15.54,22.05-22.74,33.44
		C40.89,222.06,47.08,231.83,57.24,231.83z M375.52,281.11c3.38,0.22,3.45,0.21,3.14-3.14c-1.01-10.98-2.78-21.85-4.79-32.68
		c-0.22-1.17-0.3-2.53-1.83-2.94c-1.57-0.43-2.45,0.54-3.4,1.53c-7.83,8.19-17.11,14.34-27.91,17.56c-4.92,1.47-8.18,3.86-10.4,8.19
		c-0.13,0.25-0.26,0.52-0.45,0.73c-1.35,1.48-0.81,2.46,0.76,3.32c6.5,3.54,13.12,6.81,19.83,9.93c5.85,2.71,11.39,3.79,17.14-0.03
		c1.24-0.83,2.78-1.19,4.17-1.81C373.02,281.21,374.28,280.85,375.52,281.11z M135.79,200.04c1.36-0.75,1.35-1.72,1.55-2.48
		c3.18-11.79,5.91-23.72,9.58-35.36c2.36-7.49,2.92-14.51-0.36-21.7c-0.39-0.86-0.64-1.78-0.95-2.67c-0.26-0.77-0.14-1.96-1.18-2.01
		c-1.01-0.04-1.1,1.14-1.44,1.88c-4.18,9.12-7.96,18.45-12.66,27.29c-3.14,5.91-3.72,11.17-0.94,17.31
		C131.94,187.95,133.64,193.99,135.79,200.04z M207.58,66.21c5.91,0.04,11.76,0.58,17.59,1.53c6.76,1.1,13.34,2.87,19.86,4.9
		c0.87,0.27,1.98,1.03,2.08-0.63c0.3-5.08,0.11-5.27-5.09-6.71c-0.64-0.18-1.29-0.32-1.93-0.49c-12.76-3.3-25.67-5.02-38.9-4.4
		c-6.96,0.33-13.84,1.13-20.62,2.52c-9.49,1.94-18.67,4.98-27.34,9.38c-0.49,0.25-1.17,0.63-1.25,1.05
		c-0.16,0.85,0.78,0.94,1.34,1.15c2.27,0.83,3.01,2.8,3.54,4.83c0.79,3.02,0.85,3.1,3.31,1.43C174.48,71,190.26,66.1,207.58,66.21z
		 M338.46,348.05c12.33-0.03,22.63-4.36,30.41-14.09c1.79-2.24,1.69-2.68-0.98-3.36c-4.01-1.02-7.65-2.81-10.88-5.34
		c-1.43-1.12-2.5-1.1-4.01-0.1c-7.05,4.65-14.42,8.72-22.1,12.25c-0.83,0.38-1.68,0.68-2.01,1.81c-0.56,1.9-1.35,3.72-2.07,5.57
		c-0.49,1.26-0.19,1.92,1.24,2.11C331.53,347.33,334.96,348.24,338.46,348.05z M258.12,68.59c0.42,0.83,1.14,0.86,1.74,0.94
		c5.14,0.61,9.96,2.28,14.68,4.3c8.08,3.47,15.88,7.63,24.36,10.14c5.72,1.69,11.47,2.66,17.2-0.04c2.72-1.28,2.79-1.8,0.32-3.5
		c-6.64-4.55-14.05-7.39-21.58-10.06c-10.59-3.75-21.32-5.34-32.43-2.95C260.97,67.73,259.41,67.67,258.12,68.59z M104.55,97.87
		c5.43,1.05,10.79,2.12,15.91,4.14c8.38,3.31,15.88,8.03,22.55,14.07c0.58,0.52,1.11,1.61,2.08,0.89c0.74-0.55,0.09-1.4-0.07-2.11
		c-0.76-3.23-2.48-5.93-4.67-8.34c-5.66-6.21-12.83-9.66-21-11.03C114.27,94.64,109.22,94.91,104.55,97.87z M122.72,86.17
		c-2.62-0.06-5.15,0.22-7.59,1.11c-0.67,0.24-1.72,0.23-1.55,1.27c0.14,0.86,1.08,0.55,1.68,0.63c4.24,0.56,8.36,1.59,12.38,3.07
		c8.02,2.94,15.13,7.39,21.58,12.95c0.47,0.41,0.9,1.28,1.61,0.87c0.79-0.46,0.39-1.39,0.19-2.07c-0.62-2.11-1.58-4.07-2.96-5.78
		C141.52,90.15,132.81,86.67,122.72,86.17z M403.21,309.8c0.42-2.41-0.53-2.99-2.71-2.27c-1.73,0.57-2.85,1.64-3.83,3.16
		c-2.72,4.22-5.94,5.03-10.37,2.86c-1.95-0.96-3.93-1.89-5.86-2.89c-1.56-0.81-2.74-0.27-3.77,0.92c-1.45,1.69-0.61,4.24,1.98,5.48
		c2.05,0.97,4.4,1.39,6.3,2.57c5.07,3.14,9.24,2.32,13.75-1.45C401.58,315.78,402.72,313.07,403.21,309.8z M119.21,79.57
		c0.41,0.83,1.07,0.86,1.74,0.93c4.76,0.52,9.23,2.02,13.57,3.98c6.29,2.83,11.91,6.65,16.91,11.39c0.45,0.43,0.86,1.23,1.63,0.78
		c0.71-0.42,0.39-1.19,0.22-1.81c-0.48-1.85-1.19-3.62-2.36-5.14c-6.79-8.81-15.82-12.69-26.83-11.91
		C122.41,77.92,120.53,78.18,119.21,79.57z M404.42,297.43c0.37-1.51-0.37-2.5-1.58-3.29c-2.22-1.44-4.39-2.96-6.66-4.33
		c-0.98-0.59-1.98-2.15-3.09-1.33c-1.28,0.94-0.76,2.79-0.67,4.25c0.07,1.16,1.23,1.61,2.09,2.17c1.24,0.79,2.16,1.5,0.14,2.48
		c-0.96,0.47-1.39,1.25-0.88,2.34c0.88,1.88,1.72,3.78,2.62,5.65c0.42,0.87,1.09,1.34,2.07,0.77
		C401.81,304.18,404.3,301.63,404.42,297.43z M276.46,192.71c0.67-0.04,0.92-0.56,1.23-1.04c2.47-3.8,4.95-7.6,7.44-11.39
		c1.19-1.8,0.27-2.08-1.35-2.01c-3.93,0.18-7.74-0.24-11.28-2.16c-0.47-0.25-1.21-0.55-1.56-0.35c-0.66,0.38-0.41,1.2-0.21,1.82
		c1.53,4.66,3.07,9.31,4.64,13.95C275.54,192.05,275.76,192.64,276.46,192.71z M400.95,320.69c-0.04-1.22-0.62-1.47-1.64-0.84
		c-1.71,1.03-3.49,1.96-5.09,3.14c-1.57,1.15-3.03,1.2-4.76,0.44c-2.69-1.18-5.45-2.18-8.18-3.27c-1.45-0.58-3.05-1.31-3.99,0.55
		c-0.96,1.91,0.21,3.3,1.8,4.22c2.62,1.52,5.33,2.91,7.97,4.41c0.69,0.39,1.46,0.86,2.13,0.57c3.3-1.38,6.83-2.37,9.51-4.93
		C399.9,323.83,400.33,322.21,400.95,320.69z M385.4,336.92c3.19-1.56,6.78-1.75,9.38-4.2c0.61-0.57,1.09-1.32,1.5-2.05
		c0.25-0.45,0.55-1.03,0.11-1.58c-0.5-0.63-1.04-0.26-1.51,0c-5.42,3.12-10.61,3.06-15.54-1.05c-0.07-0.06-0.18-0.07-0.26-0.12
		c-0.85-0.6-1.62-0.41-2.3,0.27c-0.75,0.75-1.07,1.67-0.4,2.56C378.69,333.79,382.28,334.95,385.4,336.92z M160.32,92.55
		c11.26-5.01,22.86-9.11,34.58-12.9C182.3,81.06,170.73,85.23,160.32,92.55z M334.46,323.93c4.25-2.07,7.77-4.25,11.26-6.48
		c0.38-0.25,0.92-0.51,0.8-1.06c-0.13-0.63-0.68-0.84-1.27-0.9c-2.07-0.23-4.15-0.44-6.22-0.69c-0.87-0.11-1.4,0.13-1.7,1.04
		C336.48,318.39,335.54,320.91,334.46,323.93z"/>
	<path class="st1" d="M147.41,313.42c20.63-29.73,61.46-32.95,87.41-13.27c0.12-0.09,0.34-0.18,0.35-0.29
		c1.02-7.88,5.38-10.23,12.91-10.05c5.6,0.13,11.21-0.55,16.8,0.45c3.88,0.7,6.25,2.98,7.53,6.56c4.18,11.68,8.35,23.36,12.52,35.04
		c0.28,0.78,0.57,1.56,0.97,2.62c1.34-2.04,1.78-4.17,2.51-6.17c3.74-10.23,7.55-20.43,11.06-30.74c1.57-4.63,4.56-7.42,9.22-7.6
		c6.91-0.27,13.87-0.75,20.78,0.39c4.21,0.69,8.38,5.23,6.92,11.23c-2.49,10.21-6.7,19.88-10.25,29.75
		c-7.4,20.6-14.93,41.15-22.29,61.76c-1.54,4.32-4.37,7.09-8.81,7.32c-6.72,0.35-13.49,0.85-20.2-0.36
		c-3.29-0.59-5.39-2.66-6.52-5.71c-1.55-4.18-3.13-8.35-4.51-12.59c-0.57-1.75-1.41-2.24-3.23-2.26c-4.74-0.06-9.5,0.6-14.21-0.42
		c-0.59-0.13-0.74,0.23-1.05,0.62c-8.52,10.63-19.17,18.04-32.53,21.23c-15.02,3.59-29.75,2.64-43.62-4.28
		c-14.48-7.22-24.09-18.84-28.28-34.63c-0.54-2.05-0.94-3.01-3.57-2.64c-3.74,0.52-7.6,0.14-11.41,0.14c-6.69,0-6.69,0-6.69,6.83
		c0,7.43,0,14.86,0,22.29c0,8.33-3.67,12.01-11.98,12.02c-4.38,0-8.76,0.01-13.14,0c-7.65-0.03-11.55-3.94-11.57-11.65
		c-0.03-10.76-0.01-21.53-0.01-32.29c0-18.19,0-36.39,0-54.58c0-8.57,3.78-12.35,12.34-12.35c13.53,0,27.05,0,40.58,0
		c2.59,0,5.12,0.38,7.37,1.76c3.57,2.19,4.48,5.74,4.57,9.57C147.49,305,147.41,308.89,147.41,313.42z M197.14,297.45
		c-2.27,0.14-4.67,0.13-7.02,0.46c-18.47,2.59-39.95,16.16-41.57,44.07c-1.09,18.89,6.57,36.28,24.41,45.52
		c17.44,9.03,43.43,8.83,62.44-10.85c1.08-1.11,0.73-1.6-0.13-2.46c-2.56-2.56-5.05-5.19-7.55-7.8c-2.96-3.07-3.03-3.16-6.08-0.28
		c-9.36,8.84-20.35,12.08-32.87,9.17c-15.09-3.51-23.68-16.18-22.79-33.02c0.78-14.71,13.48-27.19,28.17-27.99
		c11.4-0.62,20.83,3.49,28.81,11.31c1.42,1.39,2.21,1.41,3.57,0c2.79-2.86,5.68-5.65,8.71-8.25c1.63-1.4,1.25-2.17-0.03-3.49
		C224.81,303.18,212.14,297.78,197.14,297.45z M286,364.15c-0.3-0.63-0.39-0.8-0.45-0.97c-7.21-20.28-14.44-40.54-21.59-60.84
		c-0.61-1.74-1.23-2.64-3.3-2.55c-4.37,0.19-8.76,0.12-13.14,0.03c-1.78-0.03-2.33,0.17-1.61,2.19
		c10.35,28.92,20.62,57.86,30.86,86.82c0.49,1.39,1.06,1.97,2.59,1.94c4.28-0.11,8.57-0.1,12.85-0.03c1.44,0.02,2.15-0.36,2.68-1.83
		c10.42-29,20.88-57.98,31.42-86.93c0.76-2.09,0.07-2.18-1.64-2.16c-4.38,0.07-8.76,0.12-13.14-0.02c-1.83-0.06-2.61,0.55-3.21,2.28
		c-3.53,10.11-7.21,20.18-10.84,30.26C293.72,342.76,289.96,353.18,286,364.15z M237.38,357.66c0,0,0-0.01,0-0.01
		c5.9,0,11.81-0.05,17.71,0.03c1.93,0.03,2.81-0.11,1.94-2.46c-2.51-6.77-4.81-13.61-7.1-20.46c-0.54-1.62-1.35-2.17-3.08-2.16
		c-8.57,0.09-17.14-0.07-25.71,0.11c-2.62,0.05-4.27-0.72-5.98-2.73c-7.05-8.27-18.67-10.34-28.26-5.31
		c-9.48,4.97-14.4,15.65-11.65,26.07c2.39,9.04,8.3,14.96,17.47,16.92c9.09,1.94,16.99-0.67,22.97-7.98
		c1.31-1.6,2.58-2.12,4.55-2.08C225.95,357.74,231.66,357.66,237.38,357.66z M92.28,345.19c0,14.29,0.04,28.57-0.04,42.86
		c-0.01,2.02,0.31,2.84,2.59,2.72c3.99-0.22,8-0.18,12-0.01c2.08,0.09,2.74-0.4,2.71-2.62c-0.13-11.9-0.01-23.81-0.11-35.72
		c-0.02-2.05,0.35-2.76,2.59-2.71c7.71,0.16,15.43,0.01,23.14,0.1c1.78,0.02,2.49-0.33,2.41-2.3c-0.16-4.09-0.14-8.19-0.01-12.28
		c0.06-1.77-0.44-2.23-2.2-2.21c-7.81,0.1-15.62-0.03-23.43,0.09c-2.03,0.03-2.58-0.57-2.5-2.55c0.15-3.9,0.15-7.81,0-11.71
		c-0.07-1.9,0.51-2.37,2.36-2.34c7.81,0.1,15.62-0.02,23.43,0.09c1.91,0.03,2.4-0.55,2.34-2.39c-0.14-4-0.18-8.01,0.01-12
		c0.1-2.14-0.71-2.42-2.59-2.41c-13.43,0.08-26.86,0.09-40.29-0.01c-2.06-0.02-2.47,0.59-2.46,2.54
		C92.32,316.62,92.28,330.91,92.28,345.19z"/>
	<path class="st1" d="M265.43,179.86c-0.82-2.1-1.54-4.24-2.47-6.29c-1.93-4.25-5.54-6.08-10.2-5.35
		c-4.03,0.64-7.58,2.43-10.94,4.62c-1.75,1.15-2.42,0.83-2.75-1.24c-1.64-10.31-0.01-20.29,3.06-30.08c0.9-2.86,3.68-4.27,6.43-5.2
		c1.9-0.64,2.4,0.77,2.81,2.28c1.25,4.67,2.46,9.35,3.9,13.96c1.92,6.16,5.07,11.67,9.7,16.23c2.3,2.26,3.02,5.24,3.95,8.09
		c2.84,8.66,5.01,17.5,6.87,26.41c0.07,0.35,0.2,0.69,0.5,1.67c1.11-2.19,2.12-3.82,2.81-5.58c2.72-6.99,6.73-13.36,9.61-20.28
		c0.49-1.17,1.42-2,2.31-2.87c5.48-5.32,10.43-11.07,14.25-17.74c1.25-2.19,2.08-2.18,3.28,0.07c3.03,5.73,4.14,12.02,4.86,18.34
		c0.42,3.65,1.6,6.53,4.21,9.25c4.58,4.77,8.26,10.21,8.64,17.2c0.09,1.76-0.3,3.3-1.21,4.86c-3.73,6.4-7.35,12.86-10.94,19.34
		c-1.11,2.01-2.59,3.29-4.81,4.11c-18.07,6.64-36.09,13.4-54.14,20.11c-3.18,1.18-3.51,1.02-3.78-2.43
		c-0.39-5.15-1.41-10.13-3.46-14.9c-1.82-4.25-4.51-7.69-8.63-9.9c-1.34-0.72-2.14-1.64-2.36-3.27c-1.27-9.36-4.76-17.94-9.59-25.99
		c-3.28-5.46-6.82-10.76-11.07-15.54c-0.47-0.53-0.78-1.32-2.19-1.45c1.9,3.73,3.68,7.19,5.43,10.66
		c4.51,8.95,8.05,18.22,9.31,28.24c0.6,4.73,0.4,4.95-4.32,4.34c-10.12-1.31-20.15-0.94-29.98,1.94
		c-12.5,3.66-21.42,11.51-26.85,23.36c-0.38,0.84-0.34,2.44-1.74,2.22c-0.99-0.16-0.9-1.51-1.18-2.4
		c-4.21-13.65-4.96-27.65-4.13-41.8c0.61-10.36,1.75-20.68,3.88-30.82c2.51-11.99,10.21-20.13,20.96-25.5
		c8.27-4.14,17.2-5.85,26.31-6.85c8.17-0.9,16.35-0.69,24.53-0.51c2.98,0.07,3.19,0.51,2.02,3.36c-5.11,12.44-6.55,25.3-4.34,38.58
		c0.39,2.36,1.16,2.13,2.7,0.93c4.21-3.27,8.58-6.3,13.55-8.34c6.21-2.55,7.61-2.32,12.21,2.33c0.78,0.79,1.35,1.78,2.01,2.68
		C264.79,180.44,265.11,180.15,265.43,179.86z M289.51,187.68c3.52-0.67,4.48-3.38,6.07-5.42c2.66-3.4,4.74-3.75,8.24-1.23
		c1.46,1.05,2.74,2.35,4.12,3.51c0.27,0.22,0.63,0.48,0.95,0.47c0.47-0.01,0.57-0.53,0.5-0.88c-0.59-3.04-1.46-5.99-4.34-7.68
		c-2.67-1.56-5.38-1.05-7.78,0.61C293.59,179.59,291.08,183.06,289.51,187.68z"/>
	<path class="st1" d="M221.27,271.5c1.48,0.33,2.31-0.19,3.17-0.54c31.66-12.78,63.31-25.58,95.01-38.27
		c2.38-0.95,3.59-2.4,4.41-4.71c4.55-12.85,10.53-24.94,18.49-36.11c3.37-4.73,7.54-6.79,12.99-7.32c2.92-0.28,5.82-0.91,8.71-1.47
		c3.43-0.66,6.11,0.46,7.98,3.46c1.41,2.27,0.72,3.82-1.96,4.23c-3.57,0.54-7.16,0.99-10.72,1.56c-0.73,0.12-2.02-0.09-1.85,1.2
		c0.14,1.1,1.15,1.45,2.2,1.34c4.07-0.43,8.16-0.7,12.18-1.41c3.03-0.53,4.77,0.92,6.04,3.17c1.39,2.44,0.23,4.44-2.6,4.75
		c-3.31,0.36-6.63,0.62-9.95,0.94c-0.9,0.09-2.3-0.07-2.22,1.14c0.1,1.49,1.5,1.77,2.84,1.62c3.68-0.4,7.39-0.7,11.05-1.26
		c2.6-0.4,4.43,0.72,6,2.49c2.14,2.42,1.21,5.06-1.93,5.65c-3.17,0.6-6.34,1.2-9.52,1.76c-1.06,0.18-2.36,0.34-2.24,1.61
		c0.14,1.45,1.43,1.9,2.81,1.74c3.31-0.39,6.62-0.76,9.91-1.23c3.8-0.54,6.66,2.52,5.38,6.16c-0.99,2.83-2.59,5.43-4.63,8.41
		c-0.54-3.58-2.27-2.5-4.26-2.05c-7.27,1.63-12.19,5.7-15.29,12.55c-2.89,6.39-8.86,9.75-14.74,12.95
		c-5.02,2.74-10.4,4.63-15.91,6.09c-2.35,0.62-4.41,1.6-6.33,3.08c-8.93,6.88-17.13,14.51-24.75,22.82
		c-6.12,6.68-11.33,14.06-17.12,20.99c-0.59,0.71-0.97,1.65-2.07,2.08c-1.48-4.19-3.06-8.32-4.39-12.52
		c-2.22-7.02-6.98-11.27-14.21-11.62c-7.55-0.36-15.19-1.02-22.74,0.66c-3.36,0.75-5.91,2.5-7.85,5.21c-0.72,1-1.16,1.3-2.43,0.62
		c-12.78-6.87-26.33-10.1-40.88-8.45c-0.26,0.03-0.54-0.07-0.97-0.13c2.32-9.04,7.58-15.86,15.12-21.04
		c8.64-5.93,18.51-8.48,28.54-10.86c5.01-1.19,8.04,0.02,10.43,4.42c1.02,1.88,0.61,2.45-1.09,3.07c-5.29,1.92-10.3,4.39-14.81,7.79
		C225.02,267.6,223.05,269.2,221.27,271.5z"/>
	<path class="st1" d="M119.69,284.46c-5.55,1.12-9.1-0.86-12.3-5.8c-7.98-12.31-14.14-25.29-17.59-39.56
		c-0.39-1.62-0.23-2.71,1.08-3.73c2.96-2.32,5.3-5.2,7.18-8.42c1.06-1.82,2.31-2.56,4.09-1.17c2.94,2.29,5.6,1.55,8.58-0.12
		c8.12-4.54,16.35-8.87,24.58-13.2c1.83-0.96,2.8-2.27,3.38-4.25c5.12-17.27,10.28-34.52,15.56-51.74c0.76-2.48,0.86-4.72,0.14-7.19
		c-1.4-4.83-2.38-9.78-3.92-14.55c-0.96-2.98-0.84-5.64,0.16-8.53c2.02-5.82,3.85-11.7,5.7-17.58c0.49-1.57,1.44-2.62,2.85-3.37
		c17.84-9.47,36.76-15.73,56.69-18.95c10.83-1.75,21.72-2.43,32.68-2.49c5.17-0.03,9.5,2.4,14.2,3.76c0.98,0.28,1.32,1.16,1.21,2.29
		c-0.41,4.26-0.86,8.41-2.98,12.33c-2.9,5.37-3.45,11.27-2.03,17.18c1.04,4.34-1.88,7.11-3.5,10.4c-0.45,0.91-1.54,0.56-2.37,0.46
		c-2.84-0.35-5.3,0.52-7.35,2.4c-1.44,1.32-3.01,1.79-4.93,1.67c-10-0.58-19.99-0.3-29.91,1.16c-11.96,1.76-23.35,5.21-33.4,12.19
		c-14.44,10.04-21.5,24.48-24,41.41c-2.92,19.79-0.15,39.23,4.24,58.51c0.34,1.5,0.51,2.99,0.5,4.52
		c-0.04,12.67-0.39,25.34,0.04,37.99c0.16,4.8-2.05,7-5.65,9.04c-0.47-1.52-0.91-2.93-0.88-4.45c0.05-0.47,0.15-0.94,0.15-1.41
		c0.02-14,0.03-28.01,0.01-42.01c0-1.13-0.17-2.28-0.41-3.39c-1.48-6.88-2.85-13.77-3.85-20.73c-0.96-6.72-1.41-13.49-1.88-20.3
		c-0.62,1.29-1.1,2.6-1.42,3.94c-0.76,3.19-2.7,5.37-5.53,6.88c-9.15,4.87-18.3,9.74-27.44,14.63c-2.54,1.36-5.1,1.97-7.94,0.98
		c-0.61-0.21-1.34-0.96-2.07-0.1c-1.66,1.96-3.7,3.72-4.85,5.94c-0.83,1.62,0.71,3.59,1.08,5.43c0.04,0.18,0.16,0.35,0.22,0.53
		C102.44,259.67,110.05,272.63,119.69,284.46z M161.73,153.45c0.24-0.18,0.51-0.3,0.68-0.51c8.1-9.61,18.47-15.72,30.27-19.56
		c15.03-4.9,30.53-6.02,46.23-5.43c1.21,0.05,2.48,0.36,3.54-0.61c2.13-1.93,4.78-2.72,7.51-3.21c2.6-0.47,3.22-2.18,2.82-4.35
		c-0.92-5.06-0.69-10,0.66-14.97c0.83-3.06,2.22-5.85,3.47-8.72c1.26-2.87,0.77-3.7-2.13-4.83c-2.26-0.88-4.54-1.23-6.96-1.22
		c-10.48,0.03-20.88,0.82-31.25,2.42c-18.49,2.86-35.93,8.81-52.56,17.3c-1.28,0.66-2.04,1.53-2.47,2.9
		c-1.69,5.44-3.42,10.87-5.22,16.28c-0.41,1.24-0.35,2.34-0.02,3.58C158.14,139.47,159.91,146.42,161.73,153.45z"/>
	<path class="st1" d="M304.72,130.71c-1.53,0.4-3.04,0.96-4.6,1.18c-4.17,0.58-7.54-1.42-10.79-3.65c-4.29-2.94-8.27-6.5-13.65-7.36
		c-2.81-0.45-5.66-0.62-8.49-0.88c-5.8-0.53-7.71-3.06-6.59-8.76c0.51-2.61,1.13-5.25,2.4-7.56c2.44-4.47,2.16-9.55,3.54-14.25
		c0.96-3.26,3.89-5.69,3.73-9.4c-0.03-0.69,0.97-1.02,1.59-0.6c0.69,0.47,1.82,0.52,1.81,1.82c-0.03,3.21,2.44,5.8,5.53,5.52
		c2.6-0.24,5.12,0.47,7.87-0.34c3.02-0.89,4.66,1.34,4.16,4.91c2.6-1.55,4.11,0.06,5.75,1.63c3.25,3.1,8.45,3.5,12.69,0.89
		c-1.35-1.12-2.65-2.2-3.94-3.27c0.1-0.25,0.19-0.5,0.29-0.75c3.66,0.47,7.4-0.27,10.97,0.87c2.58,0.83,2.8,2.47,0.61,3.99
		c-1.57,1.09-2.12,2.26-1.6,4.08c0.53,1.86,0.54,3.75-0.06,5.63c-0.46,1.45-0.08,2.5,1.25,3.39c1.3,0.87,2.36,0.88,3.62-0.04
		c1.54-1.12,3.24-2.02,5.08-2.51c2.62-0.7,4.44,0.93,3.84,3.54c-1.29,5.67-4.23,10.36-9.07,13.66c-2.25,1.54-4.72,1.99-7.14,0.15
		c-0.38-0.29-0.79-0.62-1.29-0.36c-0.64,0.35-0.57,1.07-0.33,1.5c1.45,2.66-0.06,4.66-1.29,6.81c-5.24,9.13-10.38,18.31-15.64,27.43
		c-2.19,3.79-4.63,7.45-7.98,10.34c-6.01,5.18-10.69,5.07-16.55-0.39c-5.21-4.85-7.77-11.29-10.86-17.52
		c-4.02-8.11-0.82-14.87,2.86-21.72c1.17-2.18,3.26-1.61,5.04-0.88c4.38,1.8,8.68,3.8,13.06,5.6c4.7,1.92,9.55,3.19,14.7,2.61
		C299.05,135.6,302.26,133.99,304.72,130.71z M290.4,104.14c-0.88-1.63-2.07-2.89-2.54-4.51c-1.08-3.75-5.22-1.29-7.02-3.56
		c-0.25-0.32-0.71-0.67-1.24-0.34c-0.24,0.15-0.5,0.29-0.69,0.5c-0.86,0.98-2.51,2.12-1.91,3.21c0.79,1.43,2.5,3.19,3.92,3.28
		C284.12,102.91,287.18,103.61,290.4,104.14z M291.42,114.79c0.48-1.33,0.15-2.43-0.28-2.83c-2.12-1.99-4.42-3.79-6.71-5.59
		c-0.31-0.24-0.92-0.18-1.39-0.13c-1.41,0.13-2.61-0.17-3.55-1.32c-0.52-0.64-1.22-0.74-2.05-0.66c-1.86,0.2-3.71,0.76-5.6,0.07
		c-0.78-0.29-1.36,0.39-1.52,0.94c-0.3,1.04,0.71,0.87,1.27,0.96c2.01,0.34,4.16,0.08,5.86,1.68c0.83,0.78,2.02,1.29,3.13,1.14
		c3.07-0.4,5.2,1.18,7.3,3.01C288.94,112.98,290.1,113.78,291.42,114.79z M270.96,111.82c5.74,0.87,10.59,3.38,15.79,5.8
		c-0.09-2.17-0.82-3.24-2.72-3.68c-3.5-0.8-7.02-1.6-10.11-3.59C272.31,109.31,271.84,110.57,270.96,111.82z"/>
	<path class="st2" d="M119.69,284.46c-9.64-11.84-17.25-24.79-21.85-39.43c-0.06-0.18-0.18-0.34-0.22-0.53
		c-0.38-1.84-1.92-3.81-1.08-5.43c1.14-2.22,3.19-3.98,4.85-5.94c0.73-0.86,1.46-0.11,2.07,0.1c2.84,0.99,5.4,0.38,7.94-0.98
		c9.14-4.9,18.29-9.77,27.44-14.63c2.84-1.51,4.78-3.69,5.53-6.88c0.32-1.34,0.8-2.65,1.42-3.94c0.47,6.81,0.92,13.58,1.88,20.3
		c1,6.97,2.37,13.86,3.85,20.73c0.24,1.11,0.41,2.26,0.41,3.39c0.02,14,0,28.01-0.01,42.01c0,0.47-0.1,0.94-0.15,1.41
		c-2.78-6.88-8.24-9.79-15.29-10.05C130.88,284.39,125.28,284.5,119.69,284.46z"/>
	<path class="st1" d="M407.43,214.64c0.08,21-5.95,40.41-16.97,58.37c-0.46,0.75-0.7,2.13-1.83,1.9c-1.24-0.24-0.7-1.59-0.79-2.45
		c-1.04-10.22-2.43-20.39-4.24-30.49c-0.27-1.53-0.09-2.76,0.6-4.07c2.38-4.54,4.72-9.09,7.04-13.65c2.76-5.43,2.35-8.3-1.86-12.71
		c-0.74-0.78-0.88-1.57-0.8-2.58c0.28-3.78-0.67-6.99-4.38-8.81c-1.19-0.59-1.38-1.65-1.48-2.85c-0.18-2.15-0.95-4.21-2.75-5.4
		c-1.64-1.09-2.1-2.48-2.42-4.23c-0.95-5.18-4.77-8.59-10.08-9.08c-1.39-0.13-1.95-1-2.39-2.1c-6.6-16.44-15.01-31.91-24.6-46.79
		c-2.33-3.62-5.18-6.76-7.64-10.23c-1.15-1.62-1.45-2.82-0.28-4.56c1.37-2.03,2.49-4.25,3.55-6.47c0.73-1.54,1.49-1.94,3.06-1.02
		c25.59,14.95,46,34.77,58.52,62.05C404.24,183.74,407.47,198.74,407.43,214.64z M392.07,255.58c0.27-0.07,0.4-0.07,0.44-0.12
		c0.2-0.31,0.41-0.63,0.55-0.97c11.17-27.21,11.22-54.37-0.61-81.37c-10.66-24.33-28.37-42.49-50.46-56.68
		c-0.71-0.46-1.47-1.65-2.44-0.73c-1.19,1.13-0.06,2.12,0.62,2.94c2.24,2.7,4.26,5.51,6.17,8.49c8.89,13.87,16.76,28.26,23.11,43.47
		c0.48,1.14,1.05,1.78,2.3,2.18c6.1,1.95,9.84,6.21,11.52,12.33c0.21,0.75,0.42,1.41,0.98,2c3.8,3.96,4.92,9.69,8.98,13.53
		c0.83,0.79,0.95,2.46,1.14,3.76c0.34,2.3,1.3,4.23,2.59,6.17c1.88,2.83,2.43,6.08,2.01,9.53c-0.74,6.07-4.31,10.91-6.94,16.13
		c-1.6,3.18-2.5,6.09-1.51,9.68C391.38,248.99,391.56,252.27,392.07,255.58z"/>
	<path class="st1" d="M180.81,284.39c-0.02-8.06,1.15-15.63,5.38-22.56c-2.46,0.71-3.45,2.77-4.61,4.61
		c-1.28,2.02-2.04,4.28-2.73,6.55c-0.64,2.11-1.11,4.26-1.99,6.32c-0.7-7.9,0.77-15.41,3.9-22.7c-5.53,5.17-7.3,12.26-9.73,19.37
		c-0.51-0.71-0.8-0.92-0.81-1.14c-0.5-11.85,1.11-23.19,8.58-32.93c6.55-8.55,15.67-12.63,26.02-14.45
		c10.28-1.81,20.5-0.71,30.7,0.68c3.64,0.5,8.58,6.93,8.6,10.82c0,0.51-0.03,0.98-0.47,1.25c-0.77,0.46-1.22-0.24-1.73-0.58
		c-4.32-2.89-8.99-4.89-14.16-5.63c-1.85-0.27-3.7-0.41-6.08,0.04c1.26,1.1,2.37,1.18,3.4,1.39c6.56,1.32,12.38,4.18,17.57,8.37
		c0.64,0.52,1.78,1.01,1.52,1.88c-0.36,1.19-1.64,0.61-2.51,0.61c-10.35,0.03-20.46,1.27-30.13,5.26
		c-13.71,5.66-22.46,15.83-27.21,29.68C183.74,282.84,183.41,284.63,180.81,284.39z"/>
	<path class="st1" d="M322.12,284.67c1.2-1.98,2.07-3.53,3.04-5.01c0.98-1.49,2.22-0.9,3.52-0.38c8.72,3.46,17.48,6.82,26.17,10.35
		c2.18,0.88,4.14,0.98,6.29,0.07c2.09-0.88,4.38-1.35,6.38-2.39c3.65-1.89,6.71-1.05,10.4,0.44c6.29,2.55,10.75,6.35,13.09,12.75
		c0.81,2.2,2.19,4.2,3.3,6.29c0.71,1.33,1.87,2.77-0.02,3.95c-1.86,1.16-3.72,2.96-6.18,1.23c-3.47-2.43-6.03-5.78-8.87-8.84
		c-2.66-2.87-3.28-2.83-4.8,0.75c-1.05,2.46-2.86,4.39-4.68,7.01c2.76-0.6,2.92,0.77,2.62,2.48c-0.74,4.15-1.66,8.27-1.81,12.52
		c-0.06,1.66-1.19,1.02-2.06,0.61c-3.22-1.53-5.79-3.96-8.49-6.21c-0.73-0.61-1.51-1.21-2.07-1.96c-4.03-5.33-9.58-7.82-16.03-8.58
		c-2.01-0.23-2.07-1.1-1.5-2.76c1.36-3.98,2.09-7.97,0.6-12.19c-1.63-4.64-4.46-7.77-9.24-9.14
		C328.78,284.8,325.75,284.34,322.12,284.67z"/>
	<path class="st1" d="M122.05,165.83c-0.84-0.03-1.26-0.6-1.75-1.02c-8.12-6.91-16.21-13.85-24.36-20.72
		c-1.44-1.21-1.65-2.23-0.6-3.84c5.83-9.01,11.61-18.05,17.31-27.14c1.13-1.79,2.06-1.96,3.87-0.87
		c6.92,4.15,13.91,8.18,20.95,12.13c1.91,1.07,2.56,1.98,1.55,4.23c-5.22,11.68-10.24,23.45-15.36,35.17
		C123.3,164.57,123.17,165.67,122.05,165.83z"/>
	<path class="st1" d="M99.37,218.61c-0.62-2.33,0.18-3.95,0.32-5.63c1.96-22.88-17.86-42.58-40.69-40.39
		c-3.91,0.38-7.53,1.81-11.1,3.4c-0.71,0.32-1.47,1.4-2.22,0.67c-0.85-0.83,0.12-1.82,0.52-2.58c5.05-9.63,12.98-15.25,23.82-16.3
		c24.06-2.32,44.86,21.44,39.42,44.98C108,209.04,104.71,214.21,99.37,218.61z"/>
	<path class="st1" d="M338.13,84.52c0.24,3.42-0.36,6.78-1.15,10.12c-0.16,0.66-0.24,1.53-0.87,1.67c-0.93,0.21-1.14-0.78-1.49-1.43
		c-8.75-16.22-22.8-25.21-40.29-29.43c-3.59-0.87-7.25-1.41-10.88-2.09c-2.92-0.54-3.07-0.86-1.36-3.4
		c6.34-9.41,16.14-12.91,26.36-10.54c11.63,2.69,21.15,9.29,26.67,20.47C337.38,74.48,338.47,79.35,338.13,84.52z"/>
	<path class="st1" d="M51.71,145.7c-0.56,0-1.26,0.18-1.46-0.54c-0.23-0.85,0.54-1.37,0.96-1.95c6.24-8.4,12.71-16.63,18.67-25.22
		c2.65-3.82,5.89-5.73,10.24-6.75c6.64-1.56,13.18-3.56,19.77-5.34c0.79-0.21,1.74-0.79,2.43-0.09c0.8,0.81-0.14,1.61-0.48,2.29
		c-4.98,10.02-10.04,20-14.99,30.03c-0.85,1.72-2.01,2.6-3.86,2.88c-10.24,1.51-20.48,3.08-30.71,4.62
		C52.09,145.66,51.9,145.67,51.71,145.7z"/>
	<path class="st1" d="M318.47,127.4c1.36,0.22,2.05,1.32,2.84,2.23c10.69,12.21,19.65,25.59,27.1,39.98
		c1.44,2.78,2.71,5.64,4.15,8.41c0.85,1.63,0.25,2.42-1.35,2.48c-6.47,0.21-10.67,3.56-13.56,9.15c-1.39,2.68-3.36,5.06-5.02,7.6
		c-1.02,1.56-1.8,1.49-2.52-0.22c-2.52-5.94-6.26-11.05-10.76-15.62c-0.92-0.93-1.3-1.97-1.32-3.31
		c-0.13-10.11-2.99-19.43-8.23-28.04c-0.69-1.13-1.32-2.16-0.95-3.68c1.39-5.74,3.31-11.26,6.44-16.31
		C316.03,128.86,316.93,127.74,318.47,127.4z M319.01,136.36c-1.8,3.14-2.75,6.22-3.69,9.3c-0.27,0.9,0.03,1.67,0.5,2.42
		c4.22,6.71,6.73,14.13,7.63,21.89c0.62,5.34,2.29,9.7,5.92,13.65c2.9,3.15,2.66,3.44,5.07-0.27c1.93-2.98,3.75-6.1,7.53-6.96
		c2.34-0.54,2.2-1.54,1.26-3.31c-4.69-8.83-9.78-17.4-15.65-25.5C324.87,143.82,321.96,140.21,319.01,136.36z"/>
	<path class="st1" d="M57.24,231.83c-10.17,0-16.35-9.77-11.3-17.76c7.19-11.39,15.12-22.32,22.74-33.44
		c0.66-0.96,1.53-1.36,2.7-1.1c3.77,0.83,7.13,2.51,10.15,4.91c1.56,1.24,1.01,2.36,0.16,3.68c-4.85,7.6-9.65,15.23-14.47,22.85
		c-0.35,0.56-0.78,1.09-1.05,1.69c-0.63,1.36-0.03,2.54,1.01,3.25c1.42,0.97,1.76-0.62,2.21-1.38c4.62-7.74,9.16-15.53,13.78-23.27
		c0.47-0.79,0.75-2.43,2.06-1.81c1.3,0.6,1.17,2.05,0.53,3.26c-5.5,10.49-10.86,21.06-16.6,31.42
		C66.55,228.84,62.24,231.61,57.24,231.83z M65.45,222.13c0.02-5.66-4.95-10.6-10.58-10.52c-4.75,0.07-8.25,3.58-8.31,8.33
		c-0.07,5.75,4.72,10.64,10.42,10.63C61.86,230.57,65.43,227.01,65.45,222.13z"/>
	<path class="st1" d="M375.52,281.11c-1.24-0.26-2.5,0.1-3.74,0.65c-1.38,0.62-2.93,0.98-4.17,1.81
		c-5.75,3.82-11.29,2.74-17.14,0.03c-6.72-3.11-13.34-6.39-19.83-9.93c-1.58-0.86-2.11-1.84-0.76-3.32
		c0.19-0.21,0.32-0.47,0.45-0.73c2.22-4.33,5.48-6.72,10.4-8.19c10.8-3.22,20.08-9.37,27.91-17.56c0.95-0.99,1.83-1.96,3.4-1.53
		c1.53,0.42,1.61,1.78,1.83,2.94c2.02,10.83,3.79,21.7,4.79,32.68C378.97,281.32,378.9,281.32,375.52,281.11z M368.87,252.47
		c-5.06,4.13-10.09,7.67-15.58,10.5c-4.22,2.18-8.51,4.2-13.22,5.16c-1.05,0.21-2.22,0.62-2.29,1.81c-0.06,0.98,1.18,1.08,1.89,1.46
		c4.7,2.48,9.51,4.74,14.36,6.92c3.49,1.56,6.72,2.08,10.2-0.04c1.93-1.17,4.13-1.93,6.28-2.67c1.1-0.38,1.52-0.82,1.41-2
		C371.28,266.63,370.13,259.74,368.87,252.47z"/>
	<path class="st1" d="M135.79,200.04c-2.15-6.05-3.84-12.08-6.4-17.73c-2.78-6.14-2.21-11.4,0.94-17.31
		c4.7-8.84,8.48-18.17,12.66-27.29c0.34-0.74,0.43-1.93,1.44-1.88c1.04,0.04,0.92,1.24,1.18,2.01c0.31,0.89,0.56,1.82,0.95,2.67
		c3.28,7.19,2.72,14.21,0.36,21.7c-3.67,11.63-6.41,23.56-9.58,35.36C137.14,198.32,137.14,199.28,135.79,200.04z"/>
	<path class="st1" d="M207.58,66.21c-17.33-0.11-33.1,4.8-47.4,14.54c-2.46,1.68-2.52,1.59-3.31-1.43c-0.53-2.04-1.28-4-3.54-4.83
		c-0.57-0.21-1.5-0.3-1.34-1.15c0.08-0.42,0.76-0.8,1.25-1.05c8.68-4.4,17.85-7.44,27.34-9.38c6.78-1.39,13.66-2.19,20.62-2.52
		c13.23-0.62,26.14,1.11,38.9,4.4c0.64,0.17,1.29,0.31,1.93,0.49c5.2,1.44,5.39,1.63,5.09,6.71c-0.1,1.67-1.21,0.9-2.08,0.63
		c-6.52-2.03-13.11-3.79-19.86-4.9C219.34,66.79,213.49,66.25,207.58,66.21z"/>
	<path class="st1" d="M338.46,348.05c-3.51,0.2-6.93-0.72-10.41-1.17c-1.42-0.18-1.73-0.85-1.24-2.11c0.72-1.84,1.51-3.67,2.07-5.57
		c0.33-1.13,1.19-1.43,2.01-1.81c7.68-3.53,15.05-7.6,22.1-12.25c1.51-1,2.58-1.02,4.01,0.1c3.23,2.54,6.87,4.32,10.88,5.34
		c2.67,0.68,2.78,1.12,0.98,3.36C361.09,343.69,350.79,348.02,338.46,348.05z"/>
	<path class="st1" d="M258.12,68.59c1.29-0.92,2.85-0.86,4.29-1.17c11.12-2.39,21.84-0.8,32.43,2.95
		c7.53,2.67,14.95,5.51,21.58,10.06c2.47,1.69,2.4,2.21-0.32,3.5c-5.73,2.7-11.48,1.73-17.2,0.04c-8.48-2.51-16.27-6.67-24.36-10.14
		c-4.72-2.03-9.54-3.7-14.68-4.3C259.26,69.45,258.54,69.42,258.12,68.59z"/>
	<path class="st1" d="M104.55,97.87c4.66-2.96,9.72-3.23,14.8-2.38c8.16,1.37,15.34,4.82,21,11.03c2.19,2.41,3.91,5.11,4.67,8.34
		c0.17,0.71,0.82,1.56,0.07,2.11c-0.97,0.72-1.5-0.37-2.08-0.89c-6.68-6.04-14.17-10.76-22.55-14.07
		C115.34,99.99,109.99,98.92,104.55,97.87z"/>
	<path class="st1" d="M122.72,86.17c10.09,0.51,18.8,3.99,25.33,12.04c1.38,1.71,2.34,3.67,2.96,5.78c0.2,0.68,0.6,1.61-0.19,2.07
		c-0.71,0.41-1.13-0.46-1.61-0.87c-6.45-5.56-13.56-10.01-21.58-12.95c-4.02-1.47-8.14-2.5-12.38-3.07
		c-0.6-0.08-1.54,0.24-1.68-0.63c-0.16-1.04,0.89-1.02,1.55-1.27C117.57,86.39,120.1,86.1,122.72,86.17z"/>
	<path class="st1" d="M403.21,309.8c-0.49,3.28-1.63,5.99-4.49,8.38c-4.51,3.77-8.69,4.59-13.75,1.45c-1.9-1.18-4.25-1.6-6.3-2.57
		c-2.59-1.24-3.44-3.79-1.98-5.48c1.03-1.2,2.21-1.73,3.77-0.92c1.93,1,3.91,1.93,5.86,2.89c4.43,2.17,7.64,1.36,10.37-2.86
		c0.98-1.52,2.1-2.59,3.83-3.16C402.68,306.8,403.63,307.38,403.21,309.8z"/>
	<path class="st1" d="M119.21,79.57c1.31-1.39,3.2-1.66,4.88-1.78c11.01-0.78,20.05,3.1,26.83,11.91c1.17,1.52,1.88,3.29,2.36,5.14
		c0.16,0.62,0.49,1.39-0.22,1.81c-0.76,0.45-1.18-0.35-1.63-0.78c-5-4.74-10.63-8.55-16.91-11.39c-4.34-1.96-8.81-3.46-13.57-3.98
		C120.29,80.43,119.62,80.4,119.21,79.57z"/>
	<path class="st1" d="M404.42,297.43c-0.12,4.2-2.61,6.75-5.96,8.7c-0.98,0.57-1.65,0.1-2.07-0.77c-0.9-1.87-1.74-3.77-2.62-5.65
		c-0.51-1.09-0.09-1.87,0.88-2.34c2.02-0.99,1.09-1.69-0.14-2.48c-0.86-0.55-2.01-1.01-2.09-2.17c-0.09-1.46-0.61-3.3,0.67-4.25
		c1.11-0.82,2.11,0.74,3.09,1.33c2.27,1.37,4.44,2.89,6.66,4.33C404.04,294.93,404.79,295.93,404.42,297.43z"/>
	<path class="st1" d="M276.46,192.72c-0.7-0.07-0.92-0.67-1.09-1.17c-1.57-4.64-3.11-9.29-4.64-13.95c-0.2-0.62-0.45-1.44,0.21-1.82
		c0.34-0.2,1.09,0.1,1.56,0.35c3.54,1.91,7.35,2.33,11.28,2.16c1.62-0.07,2.54,0.21,1.35,2.01c-2.49,3.79-4.97,7.59-7.44,11.39
		C277.38,192.15,277.13,192.67,276.46,192.72z"/>
	<path class="st1" d="M400.95,320.69c-0.62,1.53-1.04,3.14-2.24,4.29c-2.68,2.56-6.21,3.55-9.51,4.93
		c-0.68,0.28-1.45-0.19-2.13-0.57c-2.64-1.49-5.34-2.88-7.97-4.41c-1.6-0.93-2.77-2.31-1.8-4.22c0.93-1.85,2.54-1.12,3.99-0.55
		c2.73,1.09,5.49,2.09,8.18,3.27c1.73,0.76,3.19,0.71,4.76-0.44c1.6-1.18,3.38-2.11,5.09-3.14
		C400.33,319.22,400.9,319.46,400.95,320.69z"/>
	<path class="st1" d="M385.4,336.92c-3.12-1.98-6.7-3.13-9.02-6.18c-0.67-0.88-0.34-1.81,0.4-2.56c0.68-0.68,1.45-0.87,2.3-0.27
		c0.08,0.05,0.19,0.06,0.26,0.12c4.92,4.11,10.12,4.17,15.54,1.05c0.46-0.27,1-0.63,1.51,0c0.45,0.56,0.15,1.13-0.11,1.58
		c-0.41,0.74-0.89,1.48-1.5,2.05C392.18,335.17,388.59,335.36,385.4,336.92z"/>
	<path class="st1" d="M160.32,92.55c10.4-7.32,21.98-11.49,34.58-12.9C183.18,83.44,171.58,87.54,160.32,92.55z"/>
	<path class="st1" d="M334.46,323.93c1.08-3.01,2.02-5.54,2.87-8.1c0.3-0.91,0.83-1.14,1.7-1.04c2.07,0.25,4.14,0.46,6.22,0.69
		c0.59,0.06,1.15,0.28,1.27,0.9c0.11,0.55-0.42,0.82-0.8,1.06C342.24,319.68,338.72,321.86,334.46,323.93z"/>
	<path class="st0" d="M197.14,297.45c15,0.33,27.67,5.73,38.09,16.42c1.28,1.31,1.66,2.09,0.03,3.49c-3.04,2.6-5.92,5.39-8.71,8.25
		c-1.37,1.4-2.15,1.39-3.57,0c-7.98-7.82-17.41-11.93-28.81-11.31c-14.69,0.8-27.39,13.28-28.17,27.99
		c-0.89,16.84,7.7,29.51,22.79,33.02c12.52,2.91,23.51-0.34,32.87-9.17c3.05-2.88,3.12-2.8,6.08,0.28c2.51,2.61,5,5.24,7.55,7.8
		c0.86,0.86,1.21,1.35,0.13,2.46c-19.01,19.67-45,19.87-62.44,10.85c-17.84-9.24-25.5-26.63-24.41-45.52
		c1.61-27.92,23.1-41.48,41.57-44.07C192.47,297.58,194.87,297.59,197.14,297.45z"/>
	<path class="st0" d="M286,364.15c3.96-10.97,7.73-21.38,11.48-31.8c3.63-10.08,7.3-20.15,10.84-30.26c0.6-1.73,1.38-2.34,3.21-2.28
		c4.38,0.14,8.76,0.09,13.14,0.02c1.7-0.03,2.4,0.07,1.64,2.16c-10.54,28.95-21.01,57.94-31.42,86.93
		c-0.53,1.46-1.24,1.85-2.68,1.83c-4.28-0.07-8.57-0.08-12.85,0.03c-1.52,0.04-2.1-0.55-2.59-1.94
		c-10.23-28.96-20.51-57.91-30.86-86.82c-0.72-2.02-0.17-2.22,1.61-2.19c4.38,0.08,8.77,0.16,13.14-0.03
		c2.07-0.09,2.69,0.81,3.3,2.55c7.15,20.3,14.38,40.57,21.59,60.84C285.61,363.35,285.7,363.51,286,364.15z"/>
	<path class="st2" d="M237.38,357.66c-5.71,0-11.43,0.08-17.14-0.04c-1.97-0.04-3.24,0.48-4.55,2.08
		c-5.98,7.3-13.88,9.92-22.97,7.98c-9.17-1.96-15.08-7.88-17.47-16.92c-2.75-10.42,2.17-21.1,11.65-26.07
		c9.59-5.03,21.21-2.96,28.26,5.31c1.71,2.01,3.36,2.78,5.98,2.73c8.57-0.18,17.14-0.02,25.71-0.11c1.73-0.02,2.54,0.54,3.08,2.16
		c2.29,6.85,4.59,13.69,7.1,20.46c0.87,2.35-0.01,2.48-1.94,2.46c-5.9-0.08-11.81-0.03-17.71-0.03
		C237.38,357.66,237.38,357.66,237.38,357.66z"/>
	<path class="st0" d="M92.28,345.19c0-14.29,0.04-28.57-0.05-42.86c-0.01-1.94,0.4-2.55,2.46-2.54c13.43,0.1,26.86,0.09,40.29,0.01
		c1.87-0.01,2.69,0.27,2.59,2.41c-0.19,3.99-0.15,8-0.01,12c0.06,1.84-0.43,2.42-2.34,2.39c-7.81-0.11-15.62,0.01-23.43-0.09
		c-1.85-0.02-2.44,0.44-2.36,2.34c0.15,3.9,0.16,7.81,0,11.71c-0.08,1.98,0.47,2.58,2.5,2.55c7.81-0.12,15.62,0.01,23.43-0.09
		c1.77-0.02,2.26,0.44,2.2,2.21c-0.14,4.09-0.16,8.19,0.01,12.28c0.08,1.97-0.63,2.32-2.41,2.3c-7.71-0.09-15.43,0.06-23.14-0.1
		c-2.24-0.05-2.61,0.66-2.59,2.71c0.1,11.9-0.02,23.81,0.11,35.72c0.02,2.22-0.64,2.71-2.71,2.62c-3.99-0.17-8.01-0.21-12,0.01
		c-2.28,0.13-2.6-0.7-2.59-2.72C92.32,373.77,92.28,359.48,92.28,345.19z"/>
	<path class="st0" d="M289.51,187.68c1.57-4.62,4.08-8.09,7.76-10.62c2.4-1.66,5.11-2.17,7.78-0.61c2.88,1.69,3.74,4.64,4.34,7.68
		c0.07,0.35-0.03,0.86-0.5,0.88c-0.31,0.01-0.68-0.24-0.95-0.47c-1.38-1.16-2.66-2.46-4.12-3.51c-3.5-2.52-5.57-2.16-8.24,1.23
		C293.98,184.29,293.03,187.01,289.51,187.68z"/>
	<path class="st2" d="M161.73,153.45c-1.82-7.02-3.59-13.98-5.44-20.92c-0.33-1.24-0.39-2.34,0.02-3.58
		c1.79-5.41,3.53-10.84,5.22-16.28c0.43-1.37,1.18-2.24,2.47-2.9c16.63-8.49,34.07-14.44,52.56-17.3c10.37-1.6,20.77-2.4,31.25-2.42
		c2.42-0.01,4.71,0.35,6.96,1.22c2.91,1.13,3.39,1.96,2.13,4.83c-1.26,2.87-2.64,5.66-3.47,8.72c-1.35,4.96-1.58,9.91-0.66,14.97
		c0.4,2.18-0.23,3.88-2.82,4.35c-2.72,0.49-5.38,1.28-7.51,3.21c-1.06,0.96-2.33,0.65-3.54,0.61c-15.69-0.59-31.19,0.53-46.23,5.43
		c-11.8,3.84-22.17,9.96-30.27,19.56C162.23,153.14,161.97,153.27,161.73,153.45z"/>
	<path class="st0" d="M290.4,104.14c-3.21-0.53-6.28-1.23-9.48-1.43c-1.41-0.09-3.12-1.85-3.92-3.28c-0.6-1.09,1.05-2.23,1.91-3.21
		c0.18-0.21,0.45-0.35,0.69-0.5c0.53-0.33,0.99,0.02,1.24,0.34c1.8,2.26,5.94-0.19,7.02,3.56
		C288.33,101.25,289.52,102.51,290.4,104.14z"/>
	<path class="st0" d="M291.42,114.79c-1.32-1.01-2.48-1.81-3.54-2.73c-2.1-1.83-4.23-3.41-7.3-3.01c-1.11,0.15-2.31-0.36-3.13-1.14
		c-1.7-1.6-3.84-1.34-5.86-1.68c-0.56-0.09-1.57,0.08-1.27-0.96c0.16-0.56,0.74-1.23,1.52-0.94c1.89,0.69,3.75,0.13,5.6-0.07
		c0.83-0.09,1.53,0.01,2.05,0.66c0.93,1.15,2.14,1.46,3.55,1.32c0.46-0.04,1.08-0.11,1.39,0.13c2.29,1.8,4.59,3.6,6.71,5.59
		C291.57,112.36,291.9,113.46,291.42,114.79z"/>
	<path class="st0" d="M270.96,111.82c0.88-1.25,1.35-2.51,2.95-1.48c3.09,1.99,6.61,2.79,10.11,3.59c1.91,0.44,2.63,1.51,2.72,3.68
		C281.55,115.2,276.69,112.69,270.96,111.82z"/>
	<path class="st2" d="M392.07,255.58c-0.5-3.31-0.69-6.59-1.55-9.68c-1-3.59-0.1-6.5,1.51-9.68c2.63-5.22,6.2-10.06,6.94-16.13
		c0.42-3.45-0.13-6.7-2.01-9.53c-1.29-1.94-2.25-3.87-2.59-6.17c-0.19-1.3-0.31-2.97-1.14-3.76c-4.06-3.85-5.18-9.57-8.98-13.53
		c-0.56-0.58-0.78-1.24-0.98-2c-1.68-6.11-5.42-10.38-11.52-12.33c-1.25-0.4-1.82-1.04-2.3-2.18
		c-6.35-15.21-14.22-29.59-23.11-43.47c-1.91-2.98-3.92-5.79-6.17-8.49c-0.68-0.82-1.82-1.81-0.62-2.94
		c0.98-0.92,1.74,0.27,2.44,0.73c22.1,14.19,39.8,32.35,50.46,56.68c11.83,27,11.78,54.17,0.61,81.37
		c-0.14,0.34-0.36,0.65-0.55,0.97C392.47,255.52,392.34,255.51,392.07,255.58z"/>
	<path class="st2" d="M319.01,136.36c2.95,3.85,5.86,7.46,8.57,11.21c5.86,8.1,10.96,16.68,15.65,25.5
		c0.94,1.77,1.08,2.78-1.26,3.31c-3.78,0.87-5.6,3.98-7.53,6.96c-2.4,3.71-2.17,3.42-5.07,0.27c-3.64-3.95-5.3-8.31-5.92-13.65
		c-0.9-7.76-3.41-15.18-7.63-21.89c-0.47-0.75-0.77-1.52-0.5-2.42C316.26,142.58,317.2,139.5,319.01,136.36z"/>
	<path class="st0" d="M65.45,222.13c-0.01,4.88-3.59,8.44-8.47,8.44c-5.69,0-10.48-4.89-10.42-10.63c0.06-4.75,3.56-8.26,8.31-8.33
		C60.5,211.53,65.47,216.47,65.45,222.13z"/>
	<path class="st2" d="M368.87,252.47c1.27,7.27,2.42,14.16,3.04,21.14c0.11,1.18-0.32,1.62-1.41,2c-2.15,0.75-4.35,1.5-6.28,2.67
		c-3.48,2.12-6.72,1.6-10.2,0.04c-4.85-2.18-9.66-4.44-14.36-6.92c-0.71-0.37-1.95-0.48-1.89-1.46c0.07-1.19,1.25-1.59,2.29-1.81
		c4.7-0.96,8.99-2.98,13.22-5.16C358.77,260.13,363.81,256.6,368.87,252.47z"/>
</g>
</svg>
